<?xml version="1.0" encoding="UTF-8"?>
<svg version="1.1" xmlns="http://www.w3.org/2000/svg" width="24" height="24">
<path d="M0 0 C5.94 0 11.88 0 18 0 C18 1.98 18 3.96 18 6 C18.99 6 19.98 6 21 6 C21 11.94 21 17.88 21 24 C13.08 24 5.16 24 -3 24 C-3 18.72 -3 13.44 -3 8 C-2.01 8 -1.02 8 0 8 C0 5.36 0 2.72 0 0 Z M3 1 C3 1.33 3 1.66 3 2 C6.96 2 10.92 2 15 2 C15 1.67 15 1.34 15 1 C11.04 1 7.08 1 3 1 Z M2 6 C2 6.66 2 7.32 2 8 C6.62 7.67 11.24 7.34 16 7 C16 6.67 16 6.34 16 6 C11.38 6 6.76 6 2 6 Z M5 8 C5 8.33 5 8.66 5 9 C8.63 9 12.26 9 16 9 C16 8.67 16 8.34 16 8 C12.37 8 8.74 8 5 8 Z M-1 9 C-2.30547755 10.08169646 -2.30547755 10.08169646 -2.1328125 12.6875 C-2.13023438 13.780625 -2.12765625 14.87375 -2.125 16 C-2.12757812 17.093125 -2.13015625 18.18625 -2.1328125 19.3125 C-2.30547755 21.91830354 -2.30547755 21.91830354 -1 23 C0.51928038 23.07179964 2.04167482 23.08392007 3.5625 23.0625 C4.80193359 23.04896484 4.80193359 23.04896484 6.06640625 23.03515625 C6.70449219 23.02355469 7.34257812 23.01195312 8 23 C7.319375 22.46375 6.63875 21.9275 5.9375 21.375 C4 19 4 19 4.125 15.875 C5 13 5 13 7 11 C3.91190305 9.23537317 2.76687864 9 -1 9 Z M11 11 C11.495 11.5775 11.99 12.155 12.5 12.75 C14 15 14 15 14 19 C15.98 19 17.96 19 20 19 C20.04241723 16.66705225 20.04092937 14.33297433 20 12 C19.01732141 10.79438816 19.01732141 10.79438816 17.15234375 10.90234375 C15.1015625 10.93489583 13.05078125 10.96744792 11 11 Z M19 20 C18.01 21.485 18.01 21.485 17 23 C17.99 22.67 18.98 22.34 20 22 C19.67 21.34 19.34 20.68 19 20 Z M13 21 C12.01 21.66 11.02 22.32 10 23 C11.65 23 13.3 23 15 23 C14.34 22.34 13.68 21.68 13 21 Z " fill="#173552" transform="translate(3,0)"/>
<path d="M0 0 C2.875 0.9375 2.875 0.9375 4.875 3.9375 C4.5 7.125 4.5 7.125 3.875 9.9375 C-1.39808448 12.09467092 -1.39808448 12.09467092 -4.4375 11.4375 C-6.125 9.9375 -6.125 9.9375 -7.125 7.0625 C-7.125 3.9375 -7.125 3.9375 -5.5625 1.5 C-3.125 -0.0625 -3.125 -0.0625 0 0 Z " fill="#3697FD" transform="translate(13.125,11.0625)"/>
</svg>
