<?xml version="1.0" encoding="UTF-8"?>
<svg version="1.1" xmlns="http://www.w3.org/2000/svg" width="24" height="24">
<path d="M0 0 C5.94 0 11.88 0 18 0 C18 1.98 18 3.96 18 6 C18.99 6 19.98 6 21 6 C21 11.94 21 17.88 21 24 C13.08 24 5.16 24 -3 24 C-3 18.72 -3 13.44 -3 8 C-2.01 8 -1.02 8 0 8 C0 5.36 0 2.72 0 0 Z M2 1 C2 1.33 2 1.66 2 2 C6.62 2 11.24 2 16 2 C16 1.67 16 1.34 16 1 C11.38 1 6.76 1 2 1 Z M2 6 C2 6.66 2 7.32 2 8 C6.62 7.67 11.24 7.34 16 7 C16 6.67 16 6.34 16 6 C11.38 6 6.76 6 2 6 Z M18 7 C18 7.66 18 8.32 18 9 C18.66 8.67 19.32 8.34 20 8 C19.34 7.67 18.68 7.34 18 7 Z M5 8 C5 8.33 5 8.66 5 9 C8.63 9 12.26 9 16 9 C16 8.67 16 8.34 16 8 C12.37 8 8.74 8 5 8 Z M-1 9 C-2.30547755 10.08169646 -2.30547755 10.08169646 -2.1328125 12.6875 C-2.13023438 13.780625 -2.12765625 14.87375 -2.125 16 C-2.12757812 17.093125 -2.13015625 18.18625 -2.1328125 19.3125 C-2.30547755 21.91830354 -2.30547755 21.91830354 -1 23 C0.4887186 23.08669432 1.981445 23.10703494 3.47265625 23.09765625 C4.82133789 23.09282227 4.82133789 23.09282227 6.19726562 23.08789062 C7.61555664 23.07532227 7.61555664 23.07532227 9.0625 23.0625 C10.01189453 23.05798828 10.96128906 23.05347656 11.93945312 23.04882812 C14.29303065 23.0370011 16.64648477 23.02052025 19 23 C19 22.01 19 21.02 19 20 C18.071875 20.2475 18.071875 20.2475 17.125 20.5 C12.74529271 21.20075317 8.42571011 21.07734251 4 21 C3.63076923 15.58461538 3.63076923 15.58461538 5.5 12.625 C5.995 12.08875 6.49 11.5525 7 11 C3.91190305 9.23537317 2.76687864 9 -1 9 Z M11 11 C11.495 11.5775 11.99 12.155 12.5 12.75 C14 15 14 15 14 19 C15.98 19 17.96 19 20 19 C20.04241723 16.66705225 20.04092937 14.33297433 20 12 C19.01732141 10.79438816 19.01732141 10.79438816 17.15234375 10.90234375 C15.1015625 10.93489583 13.05078125 10.96744792 11 11 Z " fill="#000000" transform="translate(3,0)"/>
</svg>
